# xmcd
#
# Track frame offsets: 
#        150
#        8183
#        15557
#        23530
#        35779
#        49168
#        63211
#        69944
#        77387
#        88065
#        98609
#        109416
#        115459
#        128989
#        142911
#        146880
#        150325
#        156210
#        171096
#        184914
#        195657
#        206808
#        223272
#        237763
#        245221
#        252258
#        263526
#        269927
#        278470
#        292254
#        300272
#        310704
#        316615
#        327932
#
# Disc length: 4420 seconds
#
# Revision: 0
# Processed by: cddbd v1.5.1PL0 Copyright (c) Steve Scherf et al.
# Submitted via: ExactAudioCopy v0.95a5
#
DISCID=e5114222
DTITLE=Wonder Workshop - Smoky Mountain 101 Hymns Of Faith
DYEAR=2003
DGENRE=Gospel
TTITLE0=I Will Sing Of The Mercies Of The Lord
TTITLE1=When The Saints Go Marching In
TTITLE2=Do Lord
TTITLE3=This Is My Fathers World
TTITLE4=The Lily Of The Valley
TTITLE5=Bringing In The Sheaves
TTITLE6=Stand Up For Jesus
TTITLE7=I Feel Like Travelin On
TTITLE8=Tis So Sweet
TTITLE9=Come Thou Almighty King
TTITLE10=What A Friend We Have In Jesus
TTITLE11=Take My Life And Let It Be
TTITLE12=To God Be The Glory
TTITLE13=I Will Praise Him
TTITLE14=Blest Be The Tie That Binds
TTITLE15=Be Still And Know
TTITLE16=Sweet Hour Of Prayer
TTITLE17=O God Our Help In Ages Past
TTITLE18=Praise Him, Praise Him
TTITLE19=Savior Like A Shepherd Lead Us
TTITLE20=Swing Low Sweet Chariot
TTITLE21=Amazing Grace
TTITLE22=The Old Rugged Cross
TTITLE23=Just As I Am
TTITLE24=When The Roll Is Called Up Yonder
TTITLE25=Peace Like A River
TTITLE26=All Glory, Laud And Honor
TTITLE27=Leaning On The Everlasting Arms
TTITLE28=This Is The Day
TTITLE29=I Have Decided To Follow Jesus
TTITLE30=Keep On The Sunnyside
TTITLE31=Fairest Lord Jesus
TTITLE32=Christ The Lord Is Risen Today
TTITLE33=Doxology
EXTD=
EXTT0=
EXTT1=
EXTT2=
EXTT3=
EXTT4=
EXTT5=
EXTT6=
EXTT7=
EXTT8=
EXTT9=
EXTT10=
EXTT11=
EXTT12=
EXTT13=
EXTT14=
EXTT15=
EXTT16=
EXTT17=
EXTT18=
EXTT19=
EXTT20=
EXTT21=
EXTT22=
EXTT23=
EXTT24=
EXTT25=
EXTT26=
EXTT27=
EXTT28=
EXTT29=
EXTT30=
EXTT31=
EXTT32=
EXTT33=
PLAYORDER=
